<?xml version="1.0" encoding="UTF-8" standalone="no"?>
<svg xmlns="http://www.w3.org/2000/svg" xmlns:xlink="http://www.w3.org/1999/xlink"
     contentScriptType="application/ecmascript" contentStyleType="text/css" height="283px" preserveAspectRatio="none"
     style="width:135px;height:283px;" version="1.1" viewBox="0 0 135 283" width="135px" zoomAndPan="magnify">
    <defs>
        <filter height="300%" id="f1iyjfcdnqe4lb" width="300%" x="-1" y="-1">
            <feGaussianBlur result="blurOut" stdDeviation="2.0"/>
            <feColorMatrix in="blurOut" result="blurOut2" type="matrix"
                           values="0 0 0 0 0 0 0 0 0 0 0 0 0 0 0 0 0 0 .4 0"/>
            <feOffset dx="4.0" dy="4.0" in="blurOut2" result="blurOut3"/>
            <feBlend in="SourceGraphic" in2="blurOut3" mode="normal"/>
        </filter>
    </defs>
    <g><!--class Class3-->
        <rect fill="#FEFECE" filter="url(#f1iyjfcdnqe4lb)" height="48" id="Class3"
              style="stroke: #A80036; stroke-width: 1.5;" width="73" x="51" y="8"/>
        <ellipse cx="66" cy="24" fill="#ADD1B2" rx="11" ry="11" style="stroke: #A80036; stroke-width: 1.0;"/>
        <path d="M68.3438,19.6719 L68.5156,19.75 C68.7344,19.4375 68.9375,19.3438 69.2344,19.3438 C69.5313,19.3438 69.8125,19.4844 69.9688,19.75 C70.0625,19.9063 70.0781,20.0313 70.0781,20.4688 L70.0781,21.8906 C70.0781,22.3125 70.0469,22.5 69.9375,22.6563 C69.7656,22.875 69.5,23.0156 69.2344,23.0156 C69.0156,23.0156 68.7813,22.9063 68.6406,22.7656 C68.5,22.6406 68.4688,22.5156 68.4063,22.1094 C68.3125,21.7031 68.1406,21.4844 67.6563,21.2031 C67.1875,20.9531 66.5781,20.7969 66,20.7969 C64.2656,20.7969 63.0156,22.1094 63.0156,23.8906 L63.0156,24.9844 C63.0156,26.6875 64.3125,27.7813 66.3594,27.7813 C67.125,27.7813 67.8125,27.6563 68.2344,27.3906 C68.4219,27.2969 68.4219,27.2969 68.875,26.8125 C69.0625,26.625 69.2656,26.5469 69.4844,26.5469 C69.9531,26.5469 70.3438,26.9375 70.3438,27.3906 C70.3438,27.7813 70.0156,28.2344 69.4375,28.6406 C68.6875,29.1875 67.5313,29.4844 66.3125,29.4844 C63.4219,29.4844 61.3125,27.5938 61.3125,25.0156 L61.3125,23.8906 C61.3125,21.1719 63.3125,19.0938 65.9375,19.0938 C66.8125,19.0938 67.4063,19.2344 68.3438,19.6719 Z "/>
        <text fill="#000000" font-family="sans-serif" font-size="12" lengthAdjust="spacingAndGlyphs" textLength="41"
              x="80" y="28.1543">Class3
        </text>
        <line style="stroke: #A80036; stroke-width: 1.5;" x1="52" x2="123" y1="40" y2="40"/>
        <line style="stroke: #A80036; stroke-width: 1.5;" x1="52" x2="123" y1="48" y2="48"/><!--class Class2-->
        <rect fill="#FEFECE" filter="url(#f1iyjfcdnqe4lb)" height="48" id="Class2"
              style="stroke: #A80036; stroke-width: 1.5;" width="73" x="6" y="116"/>
        <ellipse cx="21" cy="132" fill="#ADD1B2" rx="11" ry="11" style="stroke: #A80036; stroke-width: 1.0;"/>
        <path d="M23.3438,127.6719 L23.5156,127.75 C23.7344,127.4375 23.9375,127.3438 24.2344,127.3438 C24.5313,127.3438 24.8125,127.4844 24.9688,127.75 C25.0625,127.9063 25.0781,128.0313 25.0781,128.4688 L25.0781,129.8906 C25.0781,130.3125 25.0469,130.5 24.9375,130.6563 C24.7656,130.875 24.5,131.0156 24.2344,131.0156 C24.0156,131.0156 23.7813,130.9063 23.6406,130.7656 C23.5,130.6406 23.4688,130.5156 23.4063,130.1094 C23.3125,129.7031 23.1406,129.4844 22.6563,129.2031 C22.1875,128.9531 21.5781,128.7969 21,128.7969 C19.2656,128.7969 18.0156,130.1094 18.0156,131.8906 L18.0156,132.9844 C18.0156,134.6875 19.3125,135.7813 21.3594,135.7813 C22.125,135.7813 22.8125,135.6563 23.2344,135.3906 C23.4219,135.2969 23.4219,135.2969 23.875,134.8125 C24.0625,134.625 24.2656,134.5469 24.4844,134.5469 C24.9531,134.5469 25.3438,134.9375 25.3438,135.3906 C25.3438,135.7813 25.0156,136.2344 24.4375,136.6406 C23.6875,137.1875 22.5313,137.4844 21.3125,137.4844 C18.4219,137.4844 16.3125,135.5938 16.3125,133.0156 L16.3125,131.8906 C16.3125,129.1719 18.3125,127.0938 20.9375,127.0938 C21.8125,127.0938 22.4063,127.2344 23.3438,127.6719 Z "/>
        <text fill="#000000" font-family="sans-serif" font-size="12" lengthAdjust="spacingAndGlyphs" textLength="41"
              x="35" y="136.1543">Class2
        </text>
        <line style="stroke: #A80036; stroke-width: 1.5;" x1="7" x2="78" y1="148" y2="148"/>
        <line style="stroke: #A80036; stroke-width: 1.5;" x1="7" x2="78" y1="156" y2="156"/><!--class Class1-->
        <rect fill="#FEFECE" filter="url(#f1iyjfcdnqe4lb)" height="48" id="Class1"
              style="stroke: #A80036; stroke-width: 1.5;" width="73" x="51" y="224"/>
        <ellipse cx="66" cy="240" fill="#ADD1B2" rx="11" ry="11" style="stroke: #A80036; stroke-width: 1.0;"/>
        <path d="M68.3438,235.6719 L68.5156,235.75 C68.7344,235.4375 68.9375,235.3438 69.2344,235.3438 C69.5313,235.3438 69.8125,235.4844 69.9688,235.75 C70.0625,235.9063 70.0781,236.0313 70.0781,236.4688 L70.0781,237.8906 C70.0781,238.3125 70.0469,238.5 69.9375,238.6563 C69.7656,238.875 69.5,239.0156 69.2344,239.0156 C69.0156,239.0156 68.7813,238.9063 68.6406,238.7656 C68.5,238.6406 68.4688,238.5156 68.4063,238.1094 C68.3125,237.7031 68.1406,237.4844 67.6563,237.2031 C67.1875,236.9531 66.5781,236.7969 66,236.7969 C64.2656,236.7969 63.0156,238.1094 63.0156,239.8906 L63.0156,240.9844 C63.0156,242.6875 64.3125,243.7813 66.3594,243.7813 C67.125,243.7813 67.8125,243.6563 68.2344,243.3906 C68.4219,243.2969 68.4219,243.2969 68.875,242.8125 C69.0625,242.625 69.2656,242.5469 69.4844,242.5469 C69.9531,242.5469 70.3438,242.9375 70.3438,243.3906 C70.3438,243.7813 70.0156,244.2344 69.4375,244.6406 C68.6875,245.1875 67.5313,245.4844 66.3125,245.4844 C63.4219,245.4844 61.3125,243.5938 61.3125,241.0156 L61.3125,239.8906 C61.3125,237.1719 63.3125,235.0938 65.9375,235.0938 C66.8125,235.0938 67.4063,235.2344 68.3438,235.6719 Z "/>
        <text fill="#000000" font-family="sans-serif" font-size="12" lengthAdjust="spacingAndGlyphs" textLength="41"
              x="80" y="244.1543">Class1
        </text>
        <line style="stroke: #A80036; stroke-width: 1.5;" x1="52" x2="123" y1="256" y2="256"/>
        <line style="stroke: #A80036; stroke-width: 1.5;" x1="52" x2="123" y1="264"
              y2="264"/><!--link Class3 to Class2-->
        <path d="M77.7357,56 C70.8836,72.141 61.6818,93.816 54.4,110.969 " fill="none" id="Class3-Class2"
              style="stroke: #A80036; stroke-width: 1.0; stroke-dasharray: 7.0,7.0;"/>
        <polygon fill="#A80036"
                 points="52.4007,115.678,59.6001,108.9572,54.3549,111.0757,52.2364,105.8305,52.4007,115.678"
                 style="stroke: #A80036; stroke-width: 1.0;"/><!--link Class2 to Class1-->
        <path d="M52.2643,164 C59.1164,180.1409 68.3182,201.8162 75.6,218.9688 " fill="none" id="Class2-Class1"
              style="stroke: #A80036; stroke-width: 1.0; stroke-dasharray: 7.0,7.0;"/>
        <polygon fill="#A80036"
                 points="77.5993,223.6784,77.7644,213.8309,75.6455,219.0759,70.4005,216.957,77.5993,223.6784"
                 style="stroke: #A80036; stroke-width: 1.0;"/><!--link Class1 to Class3-->
        <path d="M90.6943,223.7997 C92.8157,207.1857 95.4047,184.2623 96.5,164 C97.6516,142.698 97.6516,137.302 96.5,116 C95.5159,97.796 93.3262,77.443 91.3531,61.448 "
              fill="none" id="Class1-Class3" style="stroke: #A80036; stroke-width: 1.0; stroke-dasharray: 7.0,7.0;"/>
        <polygon fill="#A80036" points="90.6943,56.2,87.8466,65.6282,91.3171,61.1611,95.7843,64.6316,90.6943,56.2"
                 style="stroke: #A80036; stroke-width: 1.0;"/><!--
@startuml
Class3 ..> Class2
Class2 ..> Class1
Class1 ..> Class3
@enduml

PlantUML version 1.2018.03(Thu Apr 05 16:59:15 UTC 2018)
(GPL source distribution)
Java Runtime: Java(TM) SE Runtime Environment
JVM: Java HotSpot(TM) 64-Bit Server VM
Java Version: 1.7.0_25-b15
Operating System: Linux
Default Encoding: UTF-8
Language: en
Country: US
-->
    </g>
</svg>