<?xml version="1.0" encoding="UTF-8" standalone="no"?>
<svg xmlns="http://www.w3.org/2000/svg" xmlns:xlink="http://www.w3.org/1999/xlink" contentScriptType="application/ecmascript" contentStyleType="text/css" height="135px" preserveAspectRatio="none" style="width:388px;height:135px;" version="1.1" viewBox="0 0 388 135" width="388px" zoomAndPan="magnify"><defs><filter height="300%" id="frnkqvhx3x9ct" width="300%" x="-1" y="-1"><feGaussianBlur result="blurOut" stdDeviation="2.0"/><feColorMatrix in="blurOut" result="blurOut2" type="matrix" values="0 0 0 0 0 0 0 0 0 0 0 0 0 0 0 0 0 0 .4 0"/><feOffset dx="4.0" dy="4.0" in="blurOut2" result="blurOut3"/><feBlend in="SourceGraphic" in2="blurOut3" mode="normal"/></filter></defs><g><!--cluster foo--><polygon fill="#FFFFFF" filter="url(#frnkqvhx3x9ct)" points="22,24,54,24,61,46.2969,128,46.2969,128,123,22,123,22,24" style="stroke: #000000; stroke-width: 1.5;"/><line style="stroke: #000000; stroke-width: 1.5;" x1="22" x2="61" y1="46.2969" y2="46.2969"/><text fill="#000000" font-family="sans-serif" font-size="14" font-weight="bold" lengthAdjust="spacingAndGlyphs" textLength="26" x="26" y="38.9951">foo</text><!--cluster bar--><polygon fill="#FFFFFF" filter="url(#frnkqvhx3x9ct)" points="152,24,184,24,191,46.2969,366,46.2969,366,123,152,123,152,24" style="stroke: #000000; stroke-width: 1.5;"/><line style="stroke: #000000; stroke-width: 1.5;" x1="152" x2="191" y1="46.2969" y2="46.2969"/><text fill="#000000" font-family="sans-serif" font-size="14" font-weight="bold" lengthAdjust="spacingAndGlyphs" textLength="26" x="156" y="38.9951">bar</text><!--class Class1--><rect fill="#FEFECE" filter="url(#frnkqvhx3x9ct)" height="48" id="Class1" style="stroke: #A80036; stroke-width: 1.5;" width="73" x="38.5" y="59"/><ellipse cx="53.5" cy="75" fill="#ADD1B2" rx="11" ry="11" style="stroke: #A80036; stroke-width: 1.0;"/><path d="M55.8438,70.6719 L56.0156,70.75 C56.2344,70.4375 56.4375,70.3438 56.7344,70.3438 C57.0313,70.3438 57.3125,70.4844 57.4688,70.75 C57.5625,70.9063 57.5781,71.0313 57.5781,71.4688 L57.5781,72.8906 C57.5781,73.3125 57.5469,73.5 57.4375,73.6563 C57.2656,73.875 57,74.0156 56.7344,74.0156 C56.5156,74.0156 56.2813,73.9063 56.1406,73.7656 C56,73.6406 55.9688,73.5156 55.9063,73.1094 C55.8125,72.7031 55.6406,72.4844 55.1563,72.2031 C54.6875,71.9531 54.0781,71.7969 53.5,71.7969 C51.7656,71.7969 50.5156,73.1094 50.5156,74.8906 L50.5156,75.9844 C50.5156,77.6875 51.8125,78.7813 53.8594,78.7813 C54.625,78.7813 55.3125,78.6563 55.7344,78.3906 C55.9219,78.2969 55.9219,78.2969 56.375,77.8125 C56.5625,77.625 56.7656,77.5469 56.9844,77.5469 C57.4531,77.5469 57.8438,77.9375 57.8438,78.3906 C57.8438,78.7813 57.5156,79.2344 56.9375,79.6406 C56.1875,80.1875 55.0313,80.4844 53.8125,80.4844 C50.9219,80.4844 48.8125,78.5938 48.8125,76.0156 L48.8125,74.8906 C48.8125,72.1719 50.8125,70.0938 53.4375,70.0938 C54.3125,70.0938 54.9063,70.2344 55.8438,70.6719 Z "/><text fill="#000000" font-family="sans-serif" font-size="12" lengthAdjust="spacingAndGlyphs" textLength="41" x="67.5" y="79.1543">Class1</text><line style="stroke: #A80036; stroke-width: 1.5;" x1="39.5" x2="110.5" y1="91" y2="91"/><line style="stroke: #A80036; stroke-width: 1.5;" x1="39.5" x2="110.5" y1="99" y2="99"/><!--class Class2--><rect fill="#FEFECE" filter="url(#frnkqvhx3x9ct)" height="48" id="Class2" style="stroke: #A80036; stroke-width: 1.5;" width="73" x="276.5" y="59"/><ellipse cx="291.5" cy="75" fill="#ADD1B2" rx="11" ry="11" style="stroke: #A80036; stroke-width: 1.0;"/><path d="M293.8438,70.6719 L294.0156,70.75 C294.2344,70.4375 294.4375,70.3438 294.7344,70.3438 C295.0313,70.3438 295.3125,70.4844 295.4688,70.75 C295.5625,70.9063 295.5781,71.0313 295.5781,71.4688 L295.5781,72.8906 C295.5781,73.3125 295.5469,73.5 295.4375,73.6563 C295.2656,73.875 295,74.0156 294.7344,74.0156 C294.5156,74.0156 294.2813,73.9063 294.1406,73.7656 C294,73.6406 293.9688,73.5156 293.9063,73.1094 C293.8125,72.7031 293.6406,72.4844 293.1563,72.2031 C292.6875,71.9531 292.0781,71.7969 291.5,71.7969 C289.7656,71.7969 288.5156,73.1094 288.5156,74.8906 L288.5156,75.9844 C288.5156,77.6875 289.8125,78.7813 291.8594,78.7813 C292.625,78.7813 293.3125,78.6563 293.7344,78.3906 C293.9219,78.2969 293.9219,78.2969 294.375,77.8125 C294.5625,77.625 294.7656,77.5469 294.9844,77.5469 C295.4531,77.5469 295.8438,77.9375 295.8438,78.3906 C295.8438,78.7813 295.5156,79.2344 294.9375,79.6406 C294.1875,80.1875 293.0313,80.4844 291.8125,80.4844 C288.9219,80.4844 286.8125,78.5938 286.8125,76.0156 L286.8125,74.8906 C286.8125,72.1719 288.8125,70.0938 291.4375,70.0938 C292.3125,70.0938 292.9063,70.2344 293.8438,70.6719 Z "/><text fill="#000000" font-family="sans-serif" font-size="12" lengthAdjust="spacingAndGlyphs" textLength="41" x="305.5" y="79.1543">Class2</text><line style="stroke: #A80036; stroke-width: 1.5;" x1="277.5" x2="348.5" y1="91" y2="91"/><line style="stroke: #A80036; stroke-width: 1.5;" x1="277.5" x2="348.5" y1="99" y2="99"/><!--class Class3--><rect fill="#FEFECE" filter="url(#frnkqvhx3x9ct)" height="48" id="Class3" style="stroke: #A80036; stroke-width: 1.5;" width="73" x="168.5" y="59"/><ellipse cx="183.5" cy="75" fill="#ADD1B2" rx="11" ry="11" style="stroke: #A80036; stroke-width: 1.0;"/><path d="M185.8438,70.6719 L186.0156,70.75 C186.2344,70.4375 186.4375,70.3438 186.7344,70.3438 C187.0313,70.3438 187.3125,70.4844 187.4688,70.75 C187.5625,70.9063 187.5781,71.0313 187.5781,71.4688 L187.5781,72.8906 C187.5781,73.3125 187.5469,73.5 187.4375,73.6563 C187.2656,73.875 187,74.0156 186.7344,74.0156 C186.5156,74.0156 186.2813,73.9063 186.1406,73.7656 C186,73.6406 185.9688,73.5156 185.9063,73.1094 C185.8125,72.7031 185.6406,72.4844 185.1563,72.2031 C184.6875,71.9531 184.0781,71.7969 183.5,71.7969 C181.7656,71.7969 180.5156,73.1094 180.5156,74.8906 L180.5156,75.9844 C180.5156,77.6875 181.8125,78.7813 183.8594,78.7813 C184.625,78.7813 185.3125,78.6563 185.7344,78.3906 C185.9219,78.2969 185.9219,78.2969 186.375,77.8125 C186.5625,77.625 186.7656,77.5469 186.9844,77.5469 C187.4531,77.5469 187.8438,77.9375 187.8438,78.3906 C187.8438,78.7813 187.5156,79.2344 186.9375,79.6406 C186.1875,80.1875 185.0313,80.4844 183.8125,80.4844 C180.9219,80.4844 178.8125,78.5938 178.8125,76.0156 L178.8125,74.8906 C178.8125,72.1719 180.8125,70.0938 183.4375,70.0938 C184.3125,70.0938 184.9063,70.2344 185.8438,70.6719 Z "/><text fill="#000000" font-family="sans-serif" font-size="12" lengthAdjust="spacingAndGlyphs" textLength="41" x="197.5" y="79.1543">Class3</text><line style="stroke: #A80036; stroke-width: 1.5;" x1="169.5" x2="240.5" y1="91" y2="91"/><line style="stroke: #A80036; stroke-width: 1.5;" x1="169.5" x2="240.5" y1="99" y2="99"/><!--
@startuml
package "foo" {
class Class1
}

package "bar" {
class Class2
class Class3
}
@enduml

PlantUML version 1.2018.03(Thu Apr 05 16:59:15 UTC 2018)
(GPL source distribution)
Java Runtime: Java(TM) SE Runtime Environment
JVM: Java HotSpot(TM) 64-Bit Server VM
Java Version: 1.7.0_25-b15
Operating System: Linux
Default Encoding: UTF-8
Language: en
Country: US
--></g></svg>