<?xml version="1.0" encoding="UTF-8" standalone="no"?>
<svg xmlns="http://www.w3.org/2000/svg" xmlns:xlink="http://www.w3.org/1999/xlink" contentScriptType="application/ecmascript" contentStyleType="text/css" height="343px" preserveAspectRatio="none" style="width:396px;height:343px;" version="1.1" viewBox="0 0 396 343" width="396px" zoomAndPan="magnify"><defs><filter height="300%" id="f4h9mgufe6pdi" width="300%" x="-1" y="-1"><feGaussianBlur result="blurOut" stdDeviation="2.0"/><feColorMatrix in="blurOut" result="blurOut2" type="matrix" values="0 0 0 0 0 0 0 0 0 0 0 0 0 0 0 0 0 0 .4 0"/><feOffset dx="4.0" dy="4.0" in="blurOut2" result="blurOut3"/><feBlend in="SourceGraphic" in2="blurOut3" mode="normal"/></filter></defs><g><!--entity assertions--><rect fill="#FEFECE" filter="url(#f4h9mgufe6pdi)" height="36.2969" style="stroke: #A80036; stroke-width: 1.5;" width="92" x="69.25" y="104"/><rect fill="#FEFECE" height="5" style="stroke: #A80036; stroke-width: 1.5;" width="10" x="64.25" y="109"/><rect fill="#FEFECE" height="5" style="stroke: #A80036; stroke-width: 1.5;" width="10" x="64.25" y="130.2969"/><text fill="#000000" font-family="sans-serif" font-size="14" lengthAdjust="spacingAndGlyphs" textLength="72" x="79.25" y="126.9951">assertions</text><!--entity groups--><rect fill="#FEFECE" filter="url(#f4h9mgufe6pdi)" height="36.2969" style="stroke: #A80036; stroke-width: 1.5;" width="69" x="6" y="200"/><rect fill="#FEFECE" height="5" style="stroke: #A80036; stroke-width: 1.5;" width="10" x="1" y="205"/><rect fill="#FEFECE" height="5" style="stroke: #A80036; stroke-width: 1.5;" width="10" x="1" y="226.2969"/><text fill="#000000" font-family="sans-serif" font-size="14" lengthAdjust="spacingAndGlyphs" textLength="49" x="16" y="222.9951">groups</text><!--entity sliceing--><rect fill="#FEFECE" filter="url(#f4h9mgufe6pdi)" height="36.2969" style="stroke: #A80036; stroke-width: 1.5;" width="72" x="266.25" y="8"/><rect fill="#FEFECE" height="5" style="stroke: #A80036; stroke-width: 1.5;" width="10" x="261.25" y="13"/><rect fill="#FEFECE" height="5" style="stroke: #A80036; stroke-width: 1.5;" width="10" x="261.25" y="34.2969"/><text fill="#000000" font-family="sans-serif" font-size="14" lengthAdjust="spacingAndGlyphs" textLength="52" x="276.25" y="30.9951">sliceing</text><!--entity resolve--><rect fill="#FEFECE" filter="url(#f4h9mgufe6pdi)" height="36.2969" style="stroke: #A80036; stroke-width: 1.5;" width="70" x="267.25" y="104"/><rect fill="#FEFECE" height="5" style="stroke: #A80036; stroke-width: 1.5;" width="10" x="262.25" y="109"/><rect fill="#FEFECE" height="5" style="stroke: #A80036; stroke-width: 1.5;" width="10" x="262.25" y="130.2969"/><text fill="#000000" font-family="sans-serif" font-size="14" lengthAdjust="spacingAndGlyphs" textLength="50" x="277.25" y="126.9951">resolve</text><!--entity util--><rect fill="#FEFECE" filter="url(#f4h9mgufe6pdi)" height="36.2969" style="stroke: #A80036; stroke-width: 1.5;" width="40" x="194.25" y="200"/><rect fill="#FEFECE" height="5" style="stroke: #A80036; stroke-width: 1.5;" width="10" x="189.25" y="205"/><rect fill="#FEFECE" height="5" style="stroke: #A80036; stroke-width: 1.5;" width="10" x="189.25" y="226.2969"/><text fill="#000000" font-family="sans-serif" font-size="14" lengthAdjust="spacingAndGlyphs" textLength="20" x="204.25" y="222.9951">util</text><!--entity classfile--><rect fill="#FEFECE" filter="url(#f4h9mgufe6pdi)" height="36.2969" style="stroke: #A80036; stroke-width: 1.5;" width="74" x="311.25" y="200"/><rect fill="#FEFECE" height="5" style="stroke: #A80036; stroke-width: 1.5;" width="10" x="306.25" y="205"/><rect fill="#FEFECE" height="5" style="stroke: #A80036; stroke-width: 1.5;" width="10" x="306.25" y="226.2969"/><text fill="#000000" font-family="sans-serif" font-size="14" lengthAdjust="spacingAndGlyphs" textLength="54" x="321.25" y="222.9951">classfile</text><!--entity slicing--><rect fill="#FEFECE" filter="url(#f4h9mgufe6pdi)" height="36.2969" style="stroke: #A80036; stroke-width: 1.5;" width="63" x="53" y="296"/><rect fill="#FEFECE" height="5" style="stroke: #A80036; stroke-width: 1.5;" width="10" x="48" y="301"/><rect fill="#FEFECE" height="5" style="stroke: #A80036; stroke-width: 1.5;" width="10" x="48" y="322.2969"/><text fill="#000000" font-family="sans-serif" font-size="14" lengthAdjust="spacingAndGlyphs" textLength="43" x="63" y="318.9951">slicing</text><!--link assertions to groups--><path d="M101.4938,140.241 C89.0186,155.877 70.5878,178.977 57.2057,195.749 " fill="none" id="assertions-groups" style="stroke: #A80036; stroke-width: 1.0;"/><polygon fill="#A80036" points="53.9189,199.868,62.6588,195.3278,57.0374,195.9597,56.4055,190.3382,53.9189,199.868" style="stroke: #A80036; stroke-width: 1.0;"/><!--link assertions to slicing--><path d="M112.444,140.196 C106.819,174.675 94.1655,252.2274 87.903,290.6104 " fill="none" id="assertions-slicing" style="stroke: #A80036; stroke-width: 1.0;"/><polygon fill="#A80036" points="87.027,295.9794,92.4243,287.7411,87.8323,291.0447,84.5287,286.4527,87.027,295.9794" style="stroke: #A80036; stroke-width: 1.0;"/><!--link assertions to util--><path d="M133.408,140.241 C150.015,156.009 174.617,179.369 192.316,196.174 " fill="none" id="assertions-util" style="stroke: #A80036; stroke-width: 1.0;"/><polygon fill="#A80036" points="196.207,199.868,192.4331,190.7709,192.5805,196.4258,186.9256,196.5732,196.207,199.868" style="stroke: #A80036; stroke-width: 1.0;"/><!--link groups to slicing--><path d="M48.3203,236.241 C55.577,251.7441 66.2688,274.5856 74.1024,291.3211 " fill="none" id="groups-slicing" style="stroke: #A80036; stroke-width: 1.0;"/><polygon fill="#A80036" points="76.2309,295.8683,76.0382,286.0213,74.1112,291.3399,68.7926,289.4129,76.2309,295.8683" style="stroke: #A80036; stroke-width: 1.0;"/><!--link sliceing to resolve--><path d="M302.25,44.241 C302.25,59.479 302.25,81.807 302.25,98.458 " fill="none" id="sliceing-resolve" style="stroke: #A80036; stroke-width: 1.0;"/><polygon fill="#A80036" points="302.25,103.868,306.25,94.868,302.25,98.868,298.25,94.868,302.25,103.868" style="stroke: #A80036; stroke-width: 1.0;"/><!--link sliceing to util--><path d="M288.213,44.107 C276.462,59.124 259.944,81.951 249.25,104 C234.668,134.064 224.484,171.555 218.998,194.89 " fill="none" id="sliceing-util" style="stroke: #A80036; stroke-width: 1.0;"/><polygon fill="#A80036" points="217.834,199.933,223.7572,192.0643,218.9594,195.0613,215.9624,190.2636,217.834,199.933" style="stroke: #A80036; stroke-width: 1.0;"/><!--link sliceing to classfile--><path d="M318.525,44.009 C331.295,58.613 348.071,80.909 355.25,104 C364.689,134.363 359.404,171.473 354.234,194.68 " fill="none" id="sliceing-classfile" style="stroke: #A80036; stroke-width: 1.0;"/><polygon fill="#A80036" points="353.07,199.698,359.0007,191.835,354.2001,194.8274,351.2078,190.0268,353.07,199.698" style="stroke: #A80036; stroke-width: 1.0;"/><!--link resolve to util--><path d="M286.109,140.241 C271.348,156.009 249.479,179.369 233.747,196.174 " fill="none" id="resolve-util" style="stroke: #A80036; stroke-width: 1.0;"/><polygon fill="#A80036" points="230.288,199.868,239.359,196.0317,233.7052,196.218,233.5189,190.5642,230.288,199.868" style="stroke: #A80036; stroke-width: 1.0;"/><!--link resolve to classfile--><path d="M310.687,140.241 C318.274,155.744 329.451,178.586 337.641,195.321 " fill="none" id="resolve-classfile" style="stroke: #A80036; stroke-width: 1.0;"/><polygon fill="#A80036" points="339.866,199.868,339.5031,190.0258,337.6683,195.3769,332.3173,193.5421,339.866,199.868" style="stroke: #A80036; stroke-width: 1.0;"/><!--
@startuml
[assertions]
[groups]
[sliceing]
[resolve]
[util]
[classfile]

[assertions] - -> [groups]
[assertions] - -> [slicing]
[assertions] - -> [util]
[groups] - -> [slicing]
[sliceing] - -> [resolve]
[sliceing] - -> [util]
[sliceing] - -> [classfile]
[resolve] - -> [util]
[resolve] - -> [classfile]
@enduml

PlantUML version 1.2018.02(Fri Mar 09 17:20:44 UTC 2018)
(GPL source distribution)
Java Runtime: Java(TM) SE Runtime Environment
JVM: Java HotSpot(TM) 64-Bit Server VM
Java Version: 1.7.0_25-b15
Operating System: Linux
Default Encoding: UTF-8
Language: en
Country: US
--></g></svg>