<?xml version="1.0" encoding="UTF-8" standalone="no"?>
<svg xmlns="http://www.w3.org/2000/svg" xmlns:xlink="http://www.w3.org/1999/xlink" contentScriptType="application/ecmascript" contentStyleType="text/css" height="439px" preserveAspectRatio="none" style="width:234px;height:439px;" version="1.1" viewBox="0 0 234 439" width="234px" zoomAndPan="magnify"><defs><filter height="300%" id="f16k9r8shl0c49" width="300%" x="-1" y="-1"><feGaussianBlur result="blurOut" stdDeviation="2.0"/><feColorMatrix in="blurOut" result="blurOut2" type="matrix" values="0 0 0 0 0 0 0 0 0 0 0 0 0 0 0 0 0 0 .4 0"/><feOffset dx="4.0" dy="4.0" in="blurOut2" result="blurOut3"/><feBlend in="SourceGraphic" in2="blurOut3" mode="normal"/></filter></defs><g><!--entity assertions--><rect fill="#FEFECE" filter="url(#f16k9r8shl0c49)" height="36.2969" style="stroke: #A80036; stroke-width: 1.5;" width="92" x="131" y="8"/><rect fill="#FEFECE" height="5" style="stroke: #A80036; stroke-width: 1.5;" width="10" x="126" y="13"/><rect fill="#FEFECE" height="5" style="stroke: #A80036; stroke-width: 1.5;" width="10" x="126" y="34.2969"/><text fill="#000000" font-family="sans-serif" font-size="14" lengthAdjust="spacingAndGlyphs" textLength="72" x="141" y="30.9951">assertions</text><!--entity groups--><rect fill="#FEFECE" filter="url(#f16k9r8shl0c49)" height="36.2969" style="stroke: #A80036; stroke-width: 1.5;" width="69" x="54.5" y="104"/><rect fill="#FEFECE" height="5" style="stroke: #A80036; stroke-width: 1.5;" width="10" x="49.5" y="109"/><rect fill="#FEFECE" height="5" style="stroke: #A80036; stroke-width: 1.5;" width="10" x="49.5" y="130.2969"/><text fill="#000000" font-family="sans-serif" font-size="14" lengthAdjust="spacingAndGlyphs" textLength="49" x="64.5" y="126.9951">groups</text><!--entity slicing--><rect fill="#FEFECE" filter="url(#f16k9r8shl0c49)" height="36.2969" style="stroke: #A80036; stroke-width: 1.5;" width="63" x="57.5" y="200"/><rect fill="#FEFECE" height="5" style="stroke: #A80036; stroke-width: 1.5;" width="10" x="52.5" y="205"/><rect fill="#FEFECE" height="5" style="stroke: #A80036; stroke-width: 1.5;" width="10" x="52.5" y="226.2969"/><text fill="#000000" font-family="sans-serif" font-size="14" lengthAdjust="spacingAndGlyphs" textLength="43" x="67.5" y="222.9951">slicing</text><!--entity util--><rect fill="#FEFECE" filter="url(#f16k9r8shl0c49)" height="36.2969" style="stroke: #A80036; stroke-width: 1.5;" width="40" x="157" y="392"/><rect fill="#FEFECE" height="5" style="stroke: #A80036; stroke-width: 1.5;" width="10" x="152" y="397"/><rect fill="#FEFECE" height="5" style="stroke: #A80036; stroke-width: 1.5;" width="10" x="152" y="418.2969"/><text fill="#000000" font-family="sans-serif" font-size="14" lengthAdjust="spacingAndGlyphs" textLength="20" x="167" y="414.9951">util</text><!--entity resolve--><rect fill="#FEFECE" filter="url(#f16k9r8shl0c49)" height="36.2969" style="stroke: #A80036; stroke-width: 1.5;" width="70" x="54" y="296"/><rect fill="#FEFECE" height="5" style="stroke: #A80036; stroke-width: 1.5;" width="10" x="49" y="301"/><rect fill="#FEFECE" height="5" style="stroke: #A80036; stroke-width: 1.5;" width="10" x="49" y="322.2969"/><text fill="#000000" font-family="sans-serif" font-size="14" lengthAdjust="spacingAndGlyphs" textLength="50" x="64" y="318.9951">resolve</text><!--entity classfile--><rect fill="#FEFECE" filter="url(#f16k9r8shl0c49)" height="36.2969" style="stroke: #A80036; stroke-width: 1.5;" width="74" x="6" y="392"/><rect fill="#FEFECE" height="5" style="stroke: #A80036; stroke-width: 1.5;" width="10" x="1" y="397"/><rect fill="#FEFECE" height="5" style="stroke: #A80036; stroke-width: 1.5;" width="10" x="1" y="418.2969"/><text fill="#000000" font-family="sans-serif" font-size="14" lengthAdjust="spacingAndGlyphs" textLength="54" x="16" y="414.9951">classfile</text><!--link assertions to groups--><path d="M160.859,44.241 C146.098,60.009 124.229,83.369 108.497,100.174 " fill="none" id="assertions-groups" style="stroke: #A80036; stroke-width: 1.0;"/><polygon fill="#A80036" points="105.0382,103.868,114.1092,100.0317,108.4554,100.218,108.2691,94.5642,105.0382,103.868" style="stroke: #A80036; stroke-width: 1.0;"/><!--link assertions to slicing--><path d="M173.187,44.041 C167.765,66.676 156.711,107.574 141,140 C131.292,160.036 116.936,180.85 105.7668,195.779 " fill="none" id="assertions-slicing" style="stroke: #A80036; stroke-width: 1.0;"/><polygon fill="#A80036" points="102.7074,199.828,111.3244,195.0586,105.7216,195.8387,104.9415,190.2359,102.7074,199.828" style="stroke: #A80036; stroke-width: 1.0;"/><!--link assertions to util--><path d="M177,44.406 C177,106.57 177,317.599 177,386.8124 " fill="none" id="assertions-util" style="stroke: #A80036; stroke-width: 1.0;"/><polygon fill="#A80036" points="177,391.9279,181,382.9279,177,386.9279,173,382.9279,177,391.9279" style="stroke: #A80036; stroke-width: 1.0;"/><!--link groups to slicing--><path d="M89,140.241 C89,155.479 89,177.807 89,194.458 " fill="none" id="groups-slicing" style="stroke: #A80036; stroke-width: 1.0;"/><polygon fill="#A80036" points="89,199.868,93,190.868,89,194.868,85,190.868,89,199.868" style="stroke: #A80036; stroke-width: 1.0;"/><!--link slicing to resolve--><path d="M89,236.241 C89,251.479 89,273.807 89,290.458 " fill="none" id="slicing-resolve" style="stroke: #A80036; stroke-width: 1.0;"/><polygon fill="#A80036" points="89,295.868,93,286.868,89,290.868,85,286.868,89,295.868" style="stroke: #A80036; stroke-width: 1.0;"/><!--link slicing to util--><path d="M102.7074,236.172 C114.196,251.229 130.379,274.08 141,296 C155.607,326.146 166.188,363.615 171.96,386.9232 " fill="none" id="slicing-util" style="stroke: #A80036; stroke-width: 1.0;"/><polygon fill="#A80036" points="173.187,391.9593,174.9432,382.2683,172.0036,387.1014,167.1705,384.1618,173.187,391.9593" style="stroke: #A80036; stroke-width: 1.0;"/><!--link slicing to classfile--><path d="M72.7253,236.009 C59.9552,250.613 43.1787,272.909 36,296 C26.5605,326.363 31.8456,363.4733 37.0156,386.6803 " fill="none" id="slicing-classfile" style="stroke: #A80036; stroke-width: 1.0;"/><polygon fill="#A80036" points="38.1803,391.6983,40.042,382.027,37.0499,386.8278,32.2491,383.8357,38.1803,391.6983" style="stroke: #A80036; stroke-width: 1.0;"/><!--link resolve to util--><path d="M105.1406,332.241 C119.902,348.0091 141.771,371.3687 157.503,388.1739 " fill="none" id="resolve-util" style="stroke: #A80036; stroke-width: 1.0;"/><polygon fill="#A80036" points="160.962,391.8683,157.7311,382.5645,157.5448,388.2183,151.891,388.032,160.962,391.8683" style="stroke: #A80036; stroke-width: 1.0;"/><!--link resolve to classfile--><path d="M80.5629,332.241 C72.9763,347.7441 61.7985,370.5856 53.6088,387.3211 " fill="none" id="resolve-classfile" style="stroke: #A80036; stroke-width: 1.0;"/><polygon fill="#A80036" points="51.3836,391.8683,58.9326,385.5427,53.5815,387.3773,51.7469,382.0261,51.3836,391.8683" style="stroke: #A80036; stroke-width: 1.0;"/><!--
@startuml
[assertions] - -> [groups]
[assertions] - -> [slicing]
[assertions] - -> [util]
[groups] - -> [slicing]
[slicing] - -> [resolve]
[slicing] - -> [util]
[slicing] - -> [classfile]
[resolve] - -> [util]
[resolve] - -> [classfile]
@enduml

PlantUML version 1.2018.03(Thu Apr 05 16:59:15 UTC 2018)
(GPL source distribution)
Java Runtime: Java(TM) SE Runtime Environment
JVM: Java HotSpot(TM) 64-Bit Server VM
Java Version: 1.7.0_25-b15
Operating System: Linux
Default Encoding: UTF-8
Language: en
Country: US
--></g></svg>