<?xml version="1.0" encoding="UTF-8" standalone="no"?>
<svg xmlns="http://www.w3.org/2000/svg" xmlns:xlink="http://www.w3.org/1999/xlink" contentScriptType="application/ecmascript" contentStyleType="text/css" height="201px" preserveAspectRatio="none" style="width:222px;height:201px;" version="1.1" viewBox="0 0 222 201" width="222px" zoomAndPan="magnify"><defs><filter height="300%" id="f1f2db7s1zweik" width="300%" x="-1" y="-1"><feGaussianBlur result="blurOut" stdDeviation="2.0"/><feColorMatrix in="blurOut" result="blurOut2" type="matrix" values="0 0 0 0 0 0 0 0 0 0 0 0 0 0 0 0 0 0 .4 0"/><feOffset dx="4.0" dy="4.0" in="blurOut2" result="blurOut3"/><feBlend in="SourceGraphic" in2="blurOut3" mode="normal"/></filter></defs><g><!--class ModuleManager--><rect fill="#FEFECE" filter="url(#f1f2db7s1zweik)" height="73.6094" id="ModuleManager" style="stroke: #A80036; stroke-width: 1.5;" width="132" x="42.5" y="8"/><ellipse cx="57.5" cy="24" fill="#ADD1B2" rx="11" ry="11" style="stroke: #A80036; stroke-width: 1.0;"/><path d="M59.8438,19.6719 L60.0156,19.75 C60.2344,19.4375 60.4375,19.3438 60.7344,19.3438 C61.0313,19.3438 61.3125,19.4844 61.4688,19.75 C61.5625,19.9063 61.5781,20.0313 61.5781,20.4688 L61.5781,21.8906 C61.5781,22.3125 61.5469,22.5 61.4375,22.6563 C61.2656,22.875 61,23.0156 60.7344,23.0156 C60.5156,23.0156 60.2813,22.9063 60.1406,22.7656 C60,22.6406 59.9688,22.5156 59.9063,22.1094 C59.8125,21.7031 59.6406,21.4844 59.1563,21.2031 C58.6875,20.9531 58.0781,20.7969 57.5,20.7969 C55.7656,20.7969 54.5156,22.1094 54.5156,23.8906 L54.5156,24.9844 C54.5156,26.6875 55.8125,27.7813 57.8594,27.7813 C58.625,27.7813 59.3125,27.6563 59.7344,27.3906 C59.9219,27.2969 59.9219,27.2969 60.375,26.8125 C60.5625,26.625 60.7656,26.5469 60.9844,26.5469 C61.4531,26.5469 61.8438,26.9375 61.8438,27.3906 C61.8438,27.7813 61.5156,28.2344 60.9375,28.6406 C60.1875,29.1875 59.0313,29.4844 57.8125,29.4844 C54.9219,29.4844 52.8125,27.5938 52.8125,25.0156 L52.8125,23.8906 C52.8125,21.1719 54.8125,19.0938 57.4375,19.0938 C58.3125,19.0938 58.9063,19.2344 59.8438,19.6719 Z "/><text fill="#000000" font-family="sans-serif" font-size="12" lengthAdjust="spacingAndGlyphs" textLength="100" x="71.5" y="28.1543">ModuleManager</text><line style="stroke: #A80036; stroke-width: 1.5;" x1="43.5" x2="173.5" y1="40" y2="40"/><line style="stroke: #A80036; stroke-width: 1.5;" x1="43.5" x2="173.5" y1="48" y2="48"/><text fill="#000000" font-family="sans-serif" font-size="11" lengthAdjust="spacingAndGlyphs" textLength="82" x="48.5" y="62.2104">startModuleA()</text><text fill="#000000" font-family="sans-serif" font-size="11" lengthAdjust="spacingAndGlyphs" textLength="83" x="48.5" y="75.0151">startModuleB()</text><!--class ModuleA--><rect fill="#FEFECE" filter="url(#f1f2db7s1zweik)" height="48" id="ModuleA" style="stroke: #A80036; stroke-width: 1.5;" width="85" x="6" y="142"/><ellipse cx="21" cy="158" fill="#ADD1B2" rx="11" ry="11" style="stroke: #A80036; stroke-width: 1.0;"/><path d="M23.3438,153.6719 L23.5156,153.75 C23.7344,153.4375 23.9375,153.3438 24.2344,153.3438 C24.5313,153.3438 24.8125,153.4844 24.9688,153.75 C25.0625,153.9063 25.0781,154.0313 25.0781,154.4688 L25.0781,155.8906 C25.0781,156.3125 25.0469,156.5 24.9375,156.6563 C24.7656,156.875 24.5,157.0156 24.2344,157.0156 C24.0156,157.0156 23.7813,156.9063 23.6406,156.7656 C23.5,156.6406 23.4688,156.5156 23.4063,156.1094 C23.3125,155.7031 23.1406,155.4844 22.6563,155.2031 C22.1875,154.9531 21.5781,154.7969 21,154.7969 C19.2656,154.7969 18.0156,156.1094 18.0156,157.8906 L18.0156,158.9844 C18.0156,160.6875 19.3125,161.7813 21.3594,161.7813 C22.125,161.7813 22.8125,161.6563 23.2344,161.3906 C23.4219,161.2969 23.4219,161.2969 23.875,160.8125 C24.0625,160.625 24.2656,160.5469 24.4844,160.5469 C24.9531,160.5469 25.3438,160.9375 25.3438,161.3906 C25.3438,161.7813 25.0156,162.2344 24.4375,162.6406 C23.6875,163.1875 22.5313,163.4844 21.3125,163.4844 C18.4219,163.4844 16.3125,161.5938 16.3125,159.0156 L16.3125,157.8906 C16.3125,155.1719 18.3125,153.0938 20.9375,153.0938 C21.8125,153.0938 22.4063,153.2344 23.3438,153.6719 Z "/><text fill="#000000" font-family="sans-serif" font-size="12" lengthAdjust="spacingAndGlyphs" textLength="53" x="35" y="162.1543">ModuleA</text><line style="stroke: #A80036; stroke-width: 1.5;" x1="7" x2="90" y1="174" y2="174"/><line style="stroke: #A80036; stroke-width: 1.5;" x1="7" x2="90" y1="182" y2="182"/><!--class ModuleB--><rect fill="#FEFECE" filter="url(#f1f2db7s1zweik)" height="48" id="ModuleB" style="stroke: #A80036; stroke-width: 1.5;" width="85" x="126" y="142"/><ellipse cx="141" cy="158" fill="#ADD1B2" rx="11" ry="11" style="stroke: #A80036; stroke-width: 1.0;"/><path d="M143.3438,153.6719 L143.5156,153.75 C143.7344,153.4375 143.9375,153.3438 144.2344,153.3438 C144.5313,153.3438 144.8125,153.4844 144.9688,153.75 C145.0625,153.9063 145.0781,154.0313 145.0781,154.4688 L145.0781,155.8906 C145.0781,156.3125 145.0469,156.5 144.9375,156.6563 C144.7656,156.875 144.5,157.0156 144.2344,157.0156 C144.0156,157.0156 143.7813,156.9063 143.6406,156.7656 C143.5,156.6406 143.4688,156.5156 143.4063,156.1094 C143.3125,155.7031 143.1406,155.4844 142.6563,155.2031 C142.1875,154.9531 141.5781,154.7969 141,154.7969 C139.2656,154.7969 138.0156,156.1094 138.0156,157.8906 L138.0156,158.9844 C138.0156,160.6875 139.3125,161.7813 141.3594,161.7813 C142.125,161.7813 142.8125,161.6563 143.2344,161.3906 C143.4219,161.2969 143.4219,161.2969 143.875,160.8125 C144.0625,160.625 144.2656,160.5469 144.4844,160.5469 C144.9531,160.5469 145.3438,160.9375 145.3438,161.3906 C145.3438,161.7813 145.0156,162.2344 144.4375,162.6406 C143.6875,163.1875 142.5313,163.4844 141.3125,163.4844 C138.4219,163.4844 136.3125,161.5938 136.3125,159.0156 L136.3125,157.8906 C136.3125,155.1719 138.3125,153.0938 140.9375,153.0938 C141.8125,153.0938 142.4063,153.2344 143.3438,153.6719 Z "/><text fill="#000000" font-family="sans-serif" font-size="12" lengthAdjust="spacingAndGlyphs" textLength="53" x="155" y="162.1543">ModuleB</text><line style="stroke: #A80036; stroke-width: 1.5;" x1="127" x2="210" y1="174" y2="174"/><line style="stroke: #A80036; stroke-width: 1.5;" x1="127" x2="210" y1="182" y2="182"/><!--link ModuleA to ModuleManager--><path d="M71.1215,141.8505 C81.5589,126.1863 92.8477,105.0724 100.8839,86.648 " fill="none" id="ModuleA-ModuleManager" style="stroke: #A80036; stroke-width: 1.0;"/><polygon fill="#A80036" points="102.8545,82.027,95.6447,88.7366,100.8931,86.6262,103.0035,91.8747,102.8545,82.027" style="stroke: #A80036; stroke-width: 1.0;"/><!--link ModuleManager to ModuleA--><path d="M78.5114,82.027 C68.1722,99.6333 57.9172,120.5055 51.6452,136.911 " fill="none" id="ModuleManager-ModuleA" style="stroke: #A80036; stroke-width: 1.0;"/><polygon fill="#A80036" points="49.8309,141.8505,56.6888,134.7816,51.5549,137.1571,49.1794,132.0232,49.8309,141.8505" style="stroke: #A80036; stroke-width: 1.0;"/><!--link ModuleB to ModuleManager--><path d="M167.777,141.8505 C162.419,126.1863 152.417,105.0724 141.874,86.648 " fill="none" id="ModuleB-ModuleManager" style="stroke: #A80036; stroke-width: 1.0;"/><polygon fill="#A80036" points="139.184,82.027,140.2551,91.8174,141.6995,86.3481,147.1689,87.7926,139.184,82.027" style="stroke: #A80036; stroke-width: 1.0;"/><!--link ModuleManager to ModuleB--><path d="M114.841,82.027 C122.32,99.7851 133.235,120.8656 143.586,137.3343 " fill="none" id="ModuleManager-ModuleB" style="stroke: #A80036; stroke-width: 1.0;"/><polygon fill="#A80036" points="146.487,141.8505,144.9884,132.1163,143.7847,137.6436,138.2574,136.4399,146.487,141.8505" style="stroke: #A80036; stroke-width: 1.0;"/><!--
@startuml
class ModuleManager {
  startModuleA()
  startModuleB()
}
ModuleA - -> ModuleManager
ModuleB - -> ModuleManager
ModuleManager - -> ModuleA
ModuleManager - -> ModuleB
@enduml

PlantUML version 1.2018.03(Thu Apr 05 16:59:15 UTC 2018)
(GPL source distribution)
Java Runtime: Java(TM) SE Runtime Environment
JVM: Java HotSpot(TM) 64-Bit Server VM
Java Version: 1.7.0_25-b15
Operating System: Linux
Default Encoding: UTF-8
Language: en
Country: US
--></g></svg>